<mxfile host="Electron" agent="Mozilla/5.0 (Windows NT 10.0; Win64; x64) AppleWebKit/537.36 (KHTML, like Gecko) draw.io/28.0.6 Chrome/138.0.7204.100 Electron/37.2.3 Safari/537.36" version="28.0.6">
  <diagram id="C5RBs43oDa-KdzZeNtuy" name="Page-1">
    <mxGraphModel dx="1025" dy="562" grid="1" gridSize="10" guides="1" tooltips="1" connect="1" arrows="1" fold="1" page="1" pageScale="1" pageWidth="827" pageHeight="1169" math="0" shadow="0">
      <root>
        <mxCell id="WIyWlLk6GJQsqaUBKTNV-0" />
        <mxCell id="WIyWlLk6GJQsqaUBKTNV-1" parent="WIyWlLk6GJQsqaUBKTNV-0" />
        <mxCell id="ynLQrAodrRzqU9FkZrxc-164" value="" style="shape=ext;double=1;rounded=0;whiteSpace=wrap;html=1;" parent="WIyWlLk6GJQsqaUBKTNV-1" vertex="1">
          <mxGeometry x="431" y="860" width="810" height="260" as="geometry" />
        </mxCell>
        <mxCell id="ynLQrAodrRzqU9FkZrxc-75" value="" style="shape=ext;double=1;rounded=0;whiteSpace=wrap;html=1;" parent="WIyWlLk6GJQsqaUBKTNV-1" vertex="1">
          <mxGeometry x="213" y="249" width="810" height="480" as="geometry" />
        </mxCell>
        <mxCell id="WIyWlLk6GJQsqaUBKTNV-2" value="" style="rounded=0;html=1;jettySize=auto;orthogonalLoop=1;fontSize=11;endArrow=block;endFill=0;endSize=8;strokeWidth=1;shadow=0;labelBackgroundColor=none;edgeStyle=orthogonalEdgeStyle;exitX=1;exitY=0.5;exitDx=0;exitDy=0;entryX=0;entryY=0.5;entryDx=0;entryDy=0;" parent="WIyWlLk6GJQsqaUBKTNV-1" source="WIyWlLk6GJQsqaUBKTNV-3" target="ynLQrAodrRzqU9FkZrxc-0" edge="1">
          <mxGeometry relative="1" as="geometry" />
        </mxCell>
        <mxCell id="WIyWlLk6GJQsqaUBKTNV-3" value="Coleta padronizada de Requisitos (RF)" style="rounded=1;whiteSpace=wrap;html=1;fontSize=12;glass=0;strokeWidth=1;shadow=0;" parent="WIyWlLk6GJQsqaUBKTNV-1" vertex="1">
          <mxGeometry x="35" y="384" width="120" height="40" as="geometry" />
        </mxCell>
        <mxCell id="ynLQrAodrRzqU9FkZrxc-0" value="Conversão de Requisitos (RF) em Esforço (PF)" style="rounded=1;whiteSpace=wrap;html=1;fontSize=12;glass=0;strokeWidth=1;shadow=0;" parent="WIyWlLk6GJQsqaUBKTNV-1" vertex="1">
          <mxGeometry x="253" y="384" width="140" height="40" as="geometry" />
        </mxCell>
        <mxCell id="ynLQrAodrRzqU9FkZrxc-141" style="edgeStyle=orthogonalEdgeStyle;shape=wire;rounded=0;orthogonalLoop=1;jettySize=auto;html=1;exitX=1;exitY=0.5;exitDx=0;exitDy=0;entryX=0.5;entryY=1;entryDx=0;entryDy=0;dashed=1;" parent="WIyWlLk6GJQsqaUBKTNV-1" source="ynLQrAodrRzqU9FkZrxc-3" target="ynLQrAodrRzqU9FkZrxc-120" edge="1">
          <mxGeometry relative="1" as="geometry" />
        </mxCell>
        <mxCell id="ynLQrAodrRzqU9FkZrxc-3" value="Cálculos de Custo&lt;div&gt;(Funções, Requisitos, Skills e Fases)&lt;/div&gt;" style="rounded=1;whiteSpace=wrap;html=1;fontSize=12;glass=0;strokeWidth=1;shadow=0;arcSize=8;" parent="WIyWlLk6GJQsqaUBKTNV-1" vertex="1">
          <mxGeometry x="1087" y="422" width="206" height="40" as="geometry" />
        </mxCell>
        <mxCell id="ynLQrAodrRzqU9FkZrxc-20" value="Parâmetros de Estimativa" style="swimlane;fontStyle=0;childLayout=stackLayout;horizontal=1;startSize=30;horizontalStack=0;resizeParent=1;resizeParentMax=0;resizeLast=0;collapsible=1;marginBottom=0;whiteSpace=wrap;html=1;" parent="WIyWlLk6GJQsqaUBKTNV-1" vertex="1">
          <mxGeometry x="236.5" y="465" width="173" height="150" as="geometry">
            <mxRectangle x="354" y="161" width="172" height="30" as="alternateBounds" />
          </mxGeometry>
        </mxCell>
        <mxCell id="ynLQrAodrRzqU9FkZrxc-21" value="Produtividade" style="text;strokeColor=none;fillColor=none;align=left;verticalAlign=middle;spacingLeft=4;spacingRight=4;overflow=hidden;points=[[0,0.5],[1,0.5]];portConstraint=eastwest;rotatable=0;whiteSpace=wrap;html=1;" parent="ynLQrAodrRzqU9FkZrxc-20" vertex="1">
          <mxGeometry y="30" width="173" height="30" as="geometry" />
        </mxCell>
        <mxCell id="ynLQrAodrRzqU9FkZrxc-22" value="Risco" style="text;strokeColor=none;fillColor=none;align=left;verticalAlign=middle;spacingLeft=4;spacingRight=4;overflow=hidden;points=[[0,0.5],[1,0.5]];portConstraint=eastwest;rotatable=0;whiteSpace=wrap;html=1;" parent="ynLQrAodrRzqU9FkZrxc-20" vertex="1">
          <mxGeometry y="60" width="173" height="30" as="geometry" />
        </mxCell>
        <mxCell id="ynLQrAodrRzqU9FkZrxc-23" value="Stack" style="text;strokeColor=none;fillColor=none;align=left;verticalAlign=middle;spacingLeft=4;spacingRight=4;overflow=hidden;points=[[0,0.5],[1,0.5]];portConstraint=eastwest;rotatable=0;whiteSpace=wrap;html=1;" parent="ynLQrAodrRzqU9FkZrxc-20" vertex="1">
          <mxGeometry y="90" width="173" height="30" as="geometry" />
        </mxCell>
        <mxCell id="ynLQrAodrRzqU9FkZrxc-26" value="Características (API, SAP, etc)" style="text;strokeColor=none;fillColor=none;align=left;verticalAlign=middle;spacingLeft=4;spacingRight=4;overflow=hidden;points=[[0,0.5],[1,0.5]];portConstraint=eastwest;rotatable=0;whiteSpace=wrap;html=1;" parent="ynLQrAodrRzqU9FkZrxc-20" vertex="1">
          <mxGeometry y="120" width="173" height="30" as="geometry" />
        </mxCell>
        <mxCell id="ynLQrAodrRzqU9FkZrxc-30" value="Distribuíção de Esforço&lt;div&gt;(Funções, Requisitos, Skills e Fases)&lt;/div&gt;" style="rounded=1;whiteSpace=wrap;html=1;fontSize=12;glass=0;strokeWidth=1;shadow=0;" parent="WIyWlLk6GJQsqaUBKTNV-1" vertex="1">
          <mxGeometry x="611" y="384" width="200" height="40" as="geometry" />
        </mxCell>
        <mxCell id="ynLQrAodrRzqU9FkZrxc-36" value="" style="rounded=0;html=1;jettySize=auto;orthogonalLoop=1;fontSize=11;endArrow=block;endFill=0;endSize=8;strokeWidth=1;shadow=0;labelBackgroundColor=none;edgeStyle=orthogonalEdgeStyle;exitX=1;exitY=0.5;exitDx=0;exitDy=0;entryX=0;entryY=0.5;entryDx=0;entryDy=0;" parent="WIyWlLk6GJQsqaUBKTNV-1" source="ynLQrAodrRzqU9FkZrxc-0" target="ynLQrAodrRzqU9FkZrxc-30" edge="1">
          <mxGeometry relative="1" as="geometry">
            <mxPoint x="480" y="404" as="sourcePoint" />
            <mxPoint x="494" y="279" as="targetPoint" />
          </mxGeometry>
        </mxCell>
        <mxCell id="ynLQrAodrRzqU9FkZrxc-37" value="" style="rounded=0;html=1;jettySize=auto;orthogonalLoop=1;fontSize=11;endArrow=block;endFill=0;endSize=8;strokeWidth=1;shadow=0;labelBackgroundColor=none;edgeStyle=orthogonalEdgeStyle;exitX=1;exitY=0.5;exitDx=0;exitDy=0;entryX=0;entryY=0.5;entryDx=0;entryDy=0;" parent="WIyWlLk6GJQsqaUBKTNV-1" source="ynLQrAodrRzqU9FkZrxc-30" target="ynLQrAodrRzqU9FkZrxc-3" edge="1">
          <mxGeometry relative="1" as="geometry">
            <mxPoint x="475" y="299" as="sourcePoint" />
            <mxPoint x="496" y="299" as="targetPoint" />
          </mxGeometry>
        </mxCell>
        <mxCell id="ynLQrAodrRzqU9FkZrxc-38" value="Padrão de Estimativa" style="swimlane;fontStyle=0;childLayout=stackLayout;horizontal=1;startSize=30;horizontalStack=0;resizeParent=1;resizeParentMax=0;resizeLast=0;collapsible=1;marginBottom=0;whiteSpace=wrap;html=1;" parent="WIyWlLk6GJQsqaUBKTNV-1" vertex="1">
          <mxGeometry x="263" y="266" width="130" height="70" as="geometry">
            <mxRectangle x="570" y="150" width="130" height="30" as="alternateBounds" />
          </mxGeometry>
        </mxCell>
        <mxCell id="ynLQrAodrRzqU9FkZrxc-39" value="&lt;span style=&quot;text-align: center;&quot;&gt;IFPUG&lt;/span&gt;" style="text;strokeColor=none;fillColor=none;align=left;verticalAlign=middle;spacingLeft=4;spacingRight=4;overflow=hidden;points=[[0,0.5],[1,0.5]];portConstraint=eastwest;rotatable=0;whiteSpace=wrap;html=1;" parent="ynLQrAodrRzqU9FkZrxc-38" vertex="1">
          <mxGeometry y="30" width="130" height="20" as="geometry" />
        </mxCell>
        <mxCell id="ynLQrAodrRzqU9FkZrxc-155" value="ISBSG&amp;nbsp;" style="text;strokeColor=none;fillColor=none;align=left;verticalAlign=middle;spacingLeft=4;spacingRight=4;overflow=hidden;points=[[0,0.5],[1,0.5]];portConstraint=eastwest;rotatable=0;whiteSpace=wrap;html=1;" parent="ynLQrAodrRzqU9FkZrxc-38" vertex="1">
          <mxGeometry y="50" width="130" height="20" as="geometry" />
        </mxCell>
        <mxCell id="ynLQrAodrRzqU9FkZrxc-41" value="" style="endArrow=none;html=1;rounded=0;exitX=0.5;exitY=0;exitDx=0;exitDy=0;entryX=0.461;entryY=1.024;entryDx=0;entryDy=0;entryPerimeter=0;" parent="WIyWlLk6GJQsqaUBKTNV-1" source="ynLQrAodrRzqU9FkZrxc-0" target="ynLQrAodrRzqU9FkZrxc-155" edge="1">
          <mxGeometry width="50" height="50" relative="1" as="geometry">
            <mxPoint x="450" y="499" as="sourcePoint" />
            <mxPoint x="323" y="359" as="targetPoint" />
          </mxGeometry>
        </mxCell>
        <mxCell id="ynLQrAodrRzqU9FkZrxc-72" value="" style="endArrow=none;html=1;rounded=0;exitX=0.5;exitY=0;exitDx=0;exitDy=0;entryX=0.5;entryY=1;entryDx=0;entryDy=0;" parent="WIyWlLk6GJQsqaUBKTNV-1" source="ynLQrAodrRzqU9FkZrxc-20" target="ynLQrAodrRzqU9FkZrxc-0" edge="1">
          <mxGeometry width="50" height="50" relative="1" as="geometry">
            <mxPoint x="470" y="507" as="sourcePoint" />
            <mxPoint x="470" y="469" as="targetPoint" />
          </mxGeometry>
        </mxCell>
        <mxCell id="ynLQrAodrRzqU9FkZrxc-73" value="Início" style="ellipse;whiteSpace=wrap;html=1;aspect=fixed;" parent="WIyWlLk6GJQsqaUBKTNV-1" vertex="1">
          <mxGeometry x="75" y="319" width="40" height="40" as="geometry" />
        </mxCell>
        <mxCell id="ynLQrAodrRzqU9FkZrxc-74" value="" style="rounded=0;html=1;jettySize=auto;orthogonalLoop=1;fontSize=11;endArrow=block;endFill=0;endSize=8;strokeWidth=1;shadow=0;labelBackgroundColor=none;edgeStyle=orthogonalEdgeStyle;exitX=0.5;exitY=1;exitDx=0;exitDy=0;entryX=0.5;entryY=0;entryDx=0;entryDy=0;" parent="WIyWlLk6GJQsqaUBKTNV-1" source="ynLQrAodrRzqU9FkZrxc-73" target="WIyWlLk6GJQsqaUBKTNV-3" edge="1">
          <mxGeometry relative="1" as="geometry">
            <mxPoint x="56" y="539" as="sourcePoint" />
            <mxPoint x="96" y="429" as="targetPoint" />
          </mxGeometry>
        </mxCell>
        <mxCell id="ynLQrAodrRzqU9FkZrxc-76" value="Funções" style="swimlane;fontStyle=0;childLayout=stackLayout;horizontal=1;startSize=30;horizontalStack=0;resizeParent=1;resizeParentMax=0;resizeLast=0;collapsible=1;marginBottom=0;whiteSpace=wrap;html=1;" parent="WIyWlLk6GJQsqaUBKTNV-1" vertex="1">
          <mxGeometry x="434" y="465" width="139" height="110" as="geometry">
            <mxRectangle x="570" y="150" width="130" height="30" as="alternateBounds" />
          </mxGeometry>
        </mxCell>
        <mxCell id="ynLQrAodrRzqU9FkZrxc-77" value="&lt;span style=&quot;text-align: center;&quot;&gt;Funções de Tratamento&lt;/span&gt;&lt;div&gt;&lt;span style=&quot;text-align: center; background-color: transparent; color: light-dark(rgb(0, 0, 0), rgb(255, 255, 255));&quot;&gt;- EE/SE/CE&lt;/span&gt;&lt;/div&gt;" style="text;strokeColor=none;fillColor=none;align=left;verticalAlign=middle;spacingLeft=4;spacingRight=4;overflow=hidden;points=[[0,0.5],[1,0.5]];portConstraint=eastwest;rotatable=0;whiteSpace=wrap;html=1;" parent="ynLQrAodrRzqU9FkZrxc-76" vertex="1">
          <mxGeometry y="30" width="139" height="40" as="geometry" />
        </mxCell>
        <mxCell id="ynLQrAodrRzqU9FkZrxc-78" value="&lt;span style=&quot;text-align: center;&quot;&gt;Funções de Dados&lt;/span&gt;&lt;div&gt;&lt;span style=&quot;text-align: center; background-color: transparent; color: light-dark(rgb(0, 0, 0), rgb(255, 255, 255));&quot;&gt;- ALI/AIE&lt;/span&gt;&lt;/div&gt;" style="text;strokeColor=none;fillColor=none;align=left;verticalAlign=middle;spacingLeft=4;spacingRight=4;overflow=hidden;points=[[0,0.5],[1,0.5]];portConstraint=eastwest;rotatable=0;whiteSpace=wrap;html=1;" parent="ynLQrAodrRzqU9FkZrxc-76" vertex="1">
          <mxGeometry y="70" width="139" height="40" as="geometry" />
        </mxCell>
        <mxCell id="ynLQrAodrRzqU9FkZrxc-79" value="Requisitos" style="swimlane;fontStyle=0;childLayout=stackLayout;horizontal=1;startSize=30;horizontalStack=0;resizeParent=1;resizeParentMax=0;resizeLast=0;collapsible=1;marginBottom=0;whiteSpace=wrap;html=1;" parent="WIyWlLk6GJQsqaUBKTNV-1" vertex="1">
          <mxGeometry x="582" y="465" width="113" height="110" as="geometry">
            <mxRectangle x="570" y="150" width="130" height="30" as="alternateBounds" />
          </mxGeometry>
        </mxCell>
        <mxCell id="ynLQrAodrRzqU9FkZrxc-80" value="&lt;div style=&quot;text-align: center;&quot;&gt;&lt;span style=&quot;background-color: transparent; color: light-dark(rgb(0, 0, 0), rgb(255, 255, 255));&quot;&gt;RF 1 a n&lt;/span&gt;&lt;/div&gt;" style="text;strokeColor=none;fillColor=none;align=left;verticalAlign=middle;spacingLeft=4;spacingRight=4;overflow=hidden;points=[[0,0.5],[1,0.5]];portConstraint=eastwest;rotatable=0;whiteSpace=wrap;html=1;" parent="ynLQrAodrRzqU9FkZrxc-79" vertex="1">
          <mxGeometry y="30" width="113" height="40" as="geometry" />
        </mxCell>
        <mxCell id="ynLQrAodrRzqU9FkZrxc-81" value="&lt;div style=&quot;text-align: center;&quot;&gt;&lt;span style=&quot;background-color: transparent; color: light-dark(rgb(0, 0, 0), rgb(255, 255, 255));&quot;&gt;CT 1 a n (por RF)&lt;/span&gt;&lt;/div&gt;" style="text;strokeColor=none;fillColor=none;align=left;verticalAlign=middle;spacingLeft=4;spacingRight=4;overflow=hidden;points=[[0,0.5],[1,0.5]];portConstraint=eastwest;rotatable=0;whiteSpace=wrap;html=1;" parent="ynLQrAodrRzqU9FkZrxc-79" vertex="1">
          <mxGeometry y="70" width="113" height="40" as="geometry" />
        </mxCell>
        <mxCell id="ynLQrAodrRzqU9FkZrxc-82" value="Skills" style="swimlane;fontStyle=0;childLayout=stackLayout;horizontal=1;startSize=30;horizontalStack=0;resizeParent=1;resizeParentMax=0;resizeLast=0;collapsible=1;marginBottom=0;whiteSpace=wrap;html=1;" parent="WIyWlLk6GJQsqaUBKTNV-1" vertex="1">
          <mxGeometry x="705" y="465" width="139" height="230" as="geometry">
            <mxRectangle x="570" y="150" width="130" height="30" as="alternateBounds" />
          </mxGeometry>
        </mxCell>
        <mxCell id="ynLQrAodrRzqU9FkZrxc-83" value="&lt;div style=&quot;text-align: center;&quot;&gt;&lt;span style=&quot;background-color: transparent; color: light-dark(rgb(0, 0, 0), rgb(255, 255, 255));&quot;&gt;PO&lt;/span&gt;&lt;/div&gt;" style="text;strokeColor=none;fillColor=none;align=left;verticalAlign=middle;spacingLeft=4;spacingRight=4;overflow=hidden;points=[[0,0.5],[1,0.5]];portConstraint=eastwest;rotatable=0;whiteSpace=wrap;html=1;" parent="ynLQrAodrRzqU9FkZrxc-82" vertex="1">
          <mxGeometry y="30" width="139" height="40" as="geometry" />
        </mxCell>
        <mxCell id="ynLQrAodrRzqU9FkZrxc-84" value="&lt;div style=&quot;text-align: center;&quot;&gt;&lt;span style=&quot;background-color: transparent; color: light-dark(rgb(0, 0, 0), rgb(255, 255, 255));&quot;&gt;Dev&lt;/span&gt;&lt;/div&gt;" style="text;strokeColor=none;fillColor=none;align=left;verticalAlign=middle;spacingLeft=4;spacingRight=4;overflow=hidden;points=[[0,0.5],[1,0.5]];portConstraint=eastwest;rotatable=0;whiteSpace=wrap;html=1;" parent="ynLQrAodrRzqU9FkZrxc-82" vertex="1">
          <mxGeometry y="70" width="139" height="40" as="geometry" />
        </mxCell>
        <mxCell id="ynLQrAodrRzqU9FkZrxc-85" value="&lt;div style=&quot;text-align: center;&quot;&gt;&lt;span style=&quot;background-color: transparent; color: light-dark(rgb(0, 0, 0), rgb(255, 255, 255));&quot;&gt;QA&lt;/span&gt;&lt;/div&gt;" style="text;strokeColor=none;fillColor=none;align=left;verticalAlign=middle;spacingLeft=4;spacingRight=4;overflow=hidden;points=[[0,0.5],[1,0.5]];portConstraint=eastwest;rotatable=0;whiteSpace=wrap;html=1;" parent="ynLQrAodrRzqU9FkZrxc-82" vertex="1">
          <mxGeometry y="110" width="139" height="40" as="geometry" />
        </mxCell>
        <mxCell id="ynLQrAodrRzqU9FkZrxc-86" value="&lt;div style=&quot;text-align: center;&quot;&gt;&lt;span style=&quot;background-color: transparent; color: light-dark(rgb(0, 0, 0), rgb(255, 255, 255));&quot;&gt;SAP Dev&lt;/span&gt;&lt;/div&gt;" style="text;strokeColor=none;fillColor=none;align=left;verticalAlign=middle;spacingLeft=4;spacingRight=4;overflow=hidden;points=[[0,0.5],[1,0.5]];portConstraint=eastwest;rotatable=0;whiteSpace=wrap;html=1;" parent="ynLQrAodrRzqU9FkZrxc-82" vertex="1">
          <mxGeometry y="150" width="139" height="40" as="geometry" />
        </mxCell>
        <mxCell id="ynLQrAodrRzqU9FkZrxc-87" value="&lt;div style=&quot;text-align: center;&quot;&gt;Data Eng&lt;/div&gt;" style="text;strokeColor=none;fillColor=none;align=left;verticalAlign=middle;spacingLeft=4;spacingRight=4;overflow=hidden;points=[[0,0.5],[1,0.5]];portConstraint=eastwest;rotatable=0;whiteSpace=wrap;html=1;" parent="ynLQrAodrRzqU9FkZrxc-82" vertex="1">
          <mxGeometry y="190" width="139" height="40" as="geometry" />
        </mxCell>
        <mxCell id="ynLQrAodrRzqU9FkZrxc-88" value="Fases" style="swimlane;fontStyle=0;childLayout=stackLayout;horizontal=1;startSize=30;horizontalStack=0;resizeParent=1;resizeParentMax=0;resizeLast=0;collapsible=1;marginBottom=0;whiteSpace=wrap;html=1;" parent="WIyWlLk6GJQsqaUBKTNV-1" vertex="1">
          <mxGeometry x="853" y="465" width="139" height="150" as="geometry">
            <mxRectangle x="570" y="150" width="130" height="30" as="alternateBounds" />
          </mxGeometry>
        </mxCell>
        <mxCell id="ynLQrAodrRzqU9FkZrxc-89" value="&lt;div style=&quot;text-align: center;&quot;&gt;&lt;span style=&quot;background-color: transparent; color: light-dark(rgb(0, 0, 0), rgb(255, 255, 255));&quot;&gt;Desenvolvimento&lt;/span&gt;&lt;/div&gt;" style="text;strokeColor=none;fillColor=none;align=left;verticalAlign=middle;spacingLeft=4;spacingRight=4;overflow=hidden;points=[[0,0.5],[1,0.5]];portConstraint=eastwest;rotatable=0;whiteSpace=wrap;html=1;" parent="ynLQrAodrRzqU9FkZrxc-88" vertex="1">
          <mxGeometry y="30" width="139" height="40" as="geometry" />
        </mxCell>
        <mxCell id="ynLQrAodrRzqU9FkZrxc-90" value="&lt;div style=&quot;text-align: center;&quot;&gt;&lt;span style=&quot;background-color: transparent; color: light-dark(rgb(0, 0, 0), rgb(255, 255, 255));&quot;&gt;Testes&lt;/span&gt;&lt;/div&gt;" style="text;strokeColor=none;fillColor=none;align=left;verticalAlign=middle;spacingLeft=4;spacingRight=4;overflow=hidden;points=[[0,0.5],[1,0.5]];portConstraint=eastwest;rotatable=0;whiteSpace=wrap;html=1;" parent="ynLQrAodrRzqU9FkZrxc-88" vertex="1">
          <mxGeometry y="70" width="139" height="40" as="geometry" />
        </mxCell>
        <mxCell id="ynLQrAodrRzqU9FkZrxc-91" value="&lt;div style=&quot;text-align: center;&quot;&gt;&lt;span style=&quot;background-color: transparent; color: light-dark(rgb(0, 0, 0), rgb(255, 255, 255));&quot;&gt;Homologação&lt;/span&gt;&lt;/div&gt;" style="text;strokeColor=none;fillColor=none;align=left;verticalAlign=middle;spacingLeft=4;spacingRight=4;overflow=hidden;points=[[0,0.5],[1,0.5]];portConstraint=eastwest;rotatable=0;whiteSpace=wrap;html=1;" parent="ynLQrAodrRzqU9FkZrxc-88" vertex="1">
          <mxGeometry y="110" width="139" height="40" as="geometry" />
        </mxCell>
        <mxCell id="ynLQrAodrRzqU9FkZrxc-98" value="" style="endArrow=none;html=1;rounded=0;entryX=0.458;entryY=0.983;entryDx=0;entryDy=0;entryPerimeter=0;exitX=0.5;exitY=0;exitDx=0;exitDy=0;" parent="WIyWlLk6GJQsqaUBKTNV-1" source="ynLQrAodrRzqU9FkZrxc-76" target="ynLQrAodrRzqU9FkZrxc-30" edge="1">
          <mxGeometry width="50" height="50" relative="1" as="geometry">
            <mxPoint x="593" y="569" as="sourcePoint" />
            <mxPoint x="643" y="519" as="targetPoint" />
            <Array as="points">
              <mxPoint x="504" y="439" />
              <mxPoint x="702" y="439" />
            </Array>
          </mxGeometry>
        </mxCell>
        <mxCell id="ynLQrAodrRzqU9FkZrxc-99" value="" style="endArrow=none;html=1;rounded=0;entryX=0.453;entryY=0.992;entryDx=0;entryDy=0;entryPerimeter=0;exitX=0.5;exitY=0;exitDx=0;exitDy=0;" parent="WIyWlLk6GJQsqaUBKTNV-1" source="ynLQrAodrRzqU9FkZrxc-88" target="ynLQrAodrRzqU9FkZrxc-30" edge="1">
          <mxGeometry width="50" height="50" relative="1" as="geometry">
            <mxPoint x="753" y="481" as="sourcePoint" />
            <mxPoint x="951" y="439" as="targetPoint" />
            <Array as="points">
              <mxPoint x="923" y="439" />
              <mxPoint x="703" y="439" />
            </Array>
          </mxGeometry>
        </mxCell>
        <mxCell id="ynLQrAodrRzqU9FkZrxc-142" style="edgeStyle=orthogonalEdgeStyle;shape=wire;rounded=0;orthogonalLoop=1;jettySize=auto;html=1;exitX=1;exitY=0.5;exitDx=0;exitDy=0;entryX=0.5;entryY=0;entryDx=0;entryDy=0;dashed=1;" parent="WIyWlLk6GJQsqaUBKTNV-1" source="ynLQrAodrRzqU9FkZrxc-100" target="ynLQrAodrRzqU9FkZrxc-120" edge="1">
          <mxGeometry relative="1" as="geometry" />
        </mxCell>
        <mxCell id="ynLQrAodrRzqU9FkZrxc-100" value="Cálculos de Prazo&lt;div&gt;(Funções, Requisitos, Skills e Fases)&lt;/div&gt;" style="rounded=1;whiteSpace=wrap;html=1;fontSize=12;glass=0;strokeWidth=1;shadow=0;" parent="WIyWlLk6GJQsqaUBKTNV-1" vertex="1">
          <mxGeometry x="1089" y="343" width="206" height="40" as="geometry" />
        </mxCell>
        <mxCell id="ynLQrAodrRzqU9FkZrxc-101" value="" style="rounded=0;html=1;jettySize=auto;orthogonalLoop=1;fontSize=11;endArrow=block;endFill=0;endSize=8;strokeWidth=1;shadow=0;labelBackgroundColor=none;edgeStyle=orthogonalEdgeStyle;exitX=1;exitY=0.5;exitDx=0;exitDy=0;entryX=0;entryY=0.5;entryDx=0;entryDy=0;" parent="WIyWlLk6GJQsqaUBKTNV-1" source="ynLQrAodrRzqU9FkZrxc-30" target="ynLQrAodrRzqU9FkZrxc-100" edge="1">
          <mxGeometry relative="1" as="geometry">
            <mxPoint x="1416" y="609" as="sourcePoint" />
            <mxPoint x="1647" y="635" as="targetPoint" />
          </mxGeometry>
        </mxCell>
        <mxCell id="ynLQrAodrRzqU9FkZrxc-108" value="Fonte Externa 2" style="swimlane;fontStyle=0;childLayout=stackLayout;horizontal=1;startSize=30;horizontalStack=0;resizeParent=1;resizeParentMax=0;resizeLast=0;collapsible=1;marginBottom=0;whiteSpace=wrap;html=1;" parent="WIyWlLk6GJQsqaUBKTNV-1" vertex="1">
          <mxGeometry x="1403" y="307" width="189" height="180" as="geometry">
            <mxRectangle x="570" y="150" width="130" height="30" as="alternateBounds" />
          </mxGeometry>
        </mxCell>
        <mxCell id="ynLQrAodrRzqU9FkZrxc-109" value="&lt;div style=&quot;text-align: center;&quot;&gt;&lt;span style=&quot;background-color: transparent; color: light-dark(rgb(0, 0, 0), rgb(255, 255, 255));&quot;&gt;% Alocação PO (W1 a Wn)&lt;/span&gt;&lt;/div&gt;" style="text;strokeColor=none;fillColor=none;align=left;verticalAlign=middle;spacingLeft=4;spacingRight=4;overflow=hidden;points=[[0,0.5],[1,0.5]];portConstraint=eastwest;rotatable=0;whiteSpace=wrap;html=1;" parent="ynLQrAodrRzqU9FkZrxc-108" vertex="1">
          <mxGeometry y="30" width="189" height="30" as="geometry" />
        </mxCell>
        <mxCell id="ynLQrAodrRzqU9FkZrxc-110" value="&lt;div style=&quot;text-align: center;&quot;&gt;&lt;span style=&quot;background-color: transparent; color: light-dark(rgb(0, 0, 0), rgb(255, 255, 255));&quot;&gt;% Alocação Dev&amp;nbsp;&lt;/span&gt;&lt;span style=&quot;background-color: transparent; color: light-dark(rgb(0, 0, 0), rgb(255, 255, 255));&quot;&gt;(W1 a Wn)&lt;/span&gt;&lt;/div&gt;" style="text;strokeColor=none;fillColor=none;align=left;verticalAlign=middle;spacingLeft=4;spacingRight=4;overflow=hidden;points=[[0,0.5],[1,0.5]];portConstraint=eastwest;rotatable=0;whiteSpace=wrap;html=1;" parent="ynLQrAodrRzqU9FkZrxc-108" vertex="1">
          <mxGeometry y="60" width="189" height="30" as="geometry" />
        </mxCell>
        <mxCell id="ynLQrAodrRzqU9FkZrxc-111" value="&lt;div style=&quot;text-align: center;&quot;&gt;&lt;span style=&quot;background-color: transparent; color: light-dark(rgb(0, 0, 0), rgb(255, 255, 255));&quot;&gt;% Alocação QA&amp;nbsp;&lt;/span&gt;&lt;span style=&quot;background-color: transparent; color: light-dark(rgb(0, 0, 0), rgb(255, 255, 255));&quot;&gt;(W1 a Wn)&lt;/span&gt;&lt;/div&gt;" style="text;strokeColor=none;fillColor=none;align=left;verticalAlign=middle;spacingLeft=4;spacingRight=4;overflow=hidden;points=[[0,0.5],[1,0.5]];portConstraint=eastwest;rotatable=0;whiteSpace=wrap;html=1;" parent="ynLQrAodrRzqU9FkZrxc-108" vertex="1">
          <mxGeometry y="90" width="189" height="30" as="geometry" />
        </mxCell>
        <mxCell id="ynLQrAodrRzqU9FkZrxc-112" value="&lt;div style=&quot;text-align: center;&quot;&gt;&lt;span style=&quot;background-color: transparent; color: light-dark(rgb(0, 0, 0), rgb(255, 255, 255));&quot;&gt;% Alocação SAP Dev&amp;nbsp;&lt;/span&gt;&lt;span style=&quot;background-color: transparent; color: light-dark(rgb(0, 0, 0), rgb(255, 255, 255));&quot;&gt;(W1 a Wn)&lt;/span&gt;&lt;/div&gt;" style="text;strokeColor=none;fillColor=none;align=left;verticalAlign=middle;spacingLeft=4;spacingRight=4;overflow=hidden;points=[[0,0.5],[1,0.5]];portConstraint=eastwest;rotatable=0;whiteSpace=wrap;html=1;" parent="ynLQrAodrRzqU9FkZrxc-108" vertex="1">
          <mxGeometry y="120" width="189" height="30" as="geometry" />
        </mxCell>
        <mxCell id="ynLQrAodrRzqU9FkZrxc-113" value="&lt;div style=&quot;text-align: center;&quot;&gt;% Alocação Data Eng&amp;nbsp;&lt;span style=&quot;background-color: transparent; color: light-dark(rgb(0, 0, 0), rgb(255, 255, 255));&quot;&gt;(W1 a Wn)&lt;/span&gt;&lt;/div&gt;" style="text;strokeColor=none;fillColor=none;align=left;verticalAlign=middle;spacingLeft=4;spacingRight=4;overflow=hidden;points=[[0,0.5],[1,0.5]];portConstraint=eastwest;rotatable=0;whiteSpace=wrap;html=1;" parent="ynLQrAodrRzqU9FkZrxc-108" vertex="1">
          <mxGeometry y="150" width="189" height="30" as="geometry" />
        </mxCell>
        <mxCell id="ynLQrAodrRzqU9FkZrxc-114" value="Fonte Externa 1" style="swimlane;fontStyle=0;childLayout=stackLayout;horizontal=1;startSize=30;horizontalStack=0;resizeParent=1;resizeParentMax=0;resizeLast=0;collapsible=1;marginBottom=0;whiteSpace=wrap;html=1;" parent="WIyWlLk6GJQsqaUBKTNV-1" vertex="1">
          <mxGeometry x="1438" y="523" width="119" height="180" as="geometry">
            <mxRectangle x="570" y="150" width="130" height="30" as="alternateBounds" />
          </mxGeometry>
        </mxCell>
        <mxCell id="ynLQrAodrRzqU9FkZrxc-115" value="&lt;div style=&quot;text-align: center;&quot;&gt;&lt;span style=&quot;background-color: transparent; color: light-dark(rgb(0, 0, 0), rgb(255, 255, 255));&quot;&gt;$ PO (HH)&lt;/span&gt;&lt;/div&gt;" style="text;strokeColor=none;fillColor=none;align=left;verticalAlign=middle;spacingLeft=4;spacingRight=4;overflow=hidden;points=[[0,0.5],[1,0.5]];portConstraint=eastwest;rotatable=0;whiteSpace=wrap;html=1;" parent="ynLQrAodrRzqU9FkZrxc-114" vertex="1">
          <mxGeometry y="30" width="119" height="30" as="geometry" />
        </mxCell>
        <mxCell id="ynLQrAodrRzqU9FkZrxc-116" value="&lt;div style=&quot;text-align: center;&quot;&gt;&lt;span style=&quot;background-color: transparent; color: light-dark(rgb(0, 0, 0), rgb(255, 255, 255));&quot;&gt;$ Dev&amp;nbsp;&lt;/span&gt;&lt;span style=&quot;background-color: transparent; color: light-dark(rgb(0, 0, 0), rgb(255, 255, 255));&quot;&gt;(HH)&lt;/span&gt;&lt;/div&gt;" style="text;strokeColor=none;fillColor=none;align=left;verticalAlign=middle;spacingLeft=4;spacingRight=4;overflow=hidden;points=[[0,0.5],[1,0.5]];portConstraint=eastwest;rotatable=0;whiteSpace=wrap;html=1;" parent="ynLQrAodrRzqU9FkZrxc-114" vertex="1">
          <mxGeometry y="60" width="119" height="30" as="geometry" />
        </mxCell>
        <mxCell id="ynLQrAodrRzqU9FkZrxc-117" value="&lt;div style=&quot;text-align: center;&quot;&gt;&lt;span style=&quot;background-color: transparent; color: light-dark(rgb(0, 0, 0), rgb(255, 255, 255));&quot;&gt;$ QA&amp;nbsp;&lt;/span&gt;&lt;span style=&quot;background-color: transparent; color: light-dark(rgb(0, 0, 0), rgb(255, 255, 255));&quot;&gt;(HH)&lt;/span&gt;&lt;/div&gt;" style="text;strokeColor=none;fillColor=none;align=left;verticalAlign=middle;spacingLeft=4;spacingRight=4;overflow=hidden;points=[[0,0.5],[1,0.5]];portConstraint=eastwest;rotatable=0;whiteSpace=wrap;html=1;" parent="ynLQrAodrRzqU9FkZrxc-114" vertex="1">
          <mxGeometry y="90" width="119" height="30" as="geometry" />
        </mxCell>
        <mxCell id="ynLQrAodrRzqU9FkZrxc-118" value="&lt;div style=&quot;text-align: center;&quot;&gt;&lt;span style=&quot;background-color: transparent; color: light-dark(rgb(0, 0, 0), rgb(255, 255, 255));&quot;&gt;$ SAP Dev&amp;nbsp;&lt;/span&gt;&lt;span style=&quot;background-color: transparent; color: light-dark(rgb(0, 0, 0), rgb(255, 255, 255));&quot;&gt;(HH)&lt;/span&gt;&lt;/div&gt;" style="text;strokeColor=none;fillColor=none;align=left;verticalAlign=middle;spacingLeft=4;spacingRight=4;overflow=hidden;points=[[0,0.5],[1,0.5]];portConstraint=eastwest;rotatable=0;whiteSpace=wrap;html=1;" parent="ynLQrAodrRzqU9FkZrxc-114" vertex="1">
          <mxGeometry y="120" width="119" height="30" as="geometry" />
        </mxCell>
        <mxCell id="ynLQrAodrRzqU9FkZrxc-119" value="&lt;div style=&quot;text-align: center;&quot;&gt;$ Data Eng&amp;nbsp;&lt;span style=&quot;background-color: transparent; color: light-dark(rgb(0, 0, 0), rgb(255, 255, 255));&quot;&gt;(HH)&lt;/span&gt;&lt;/div&gt;" style="text;strokeColor=none;fillColor=none;align=left;verticalAlign=middle;spacingLeft=4;spacingRight=4;overflow=hidden;points=[[0,0.5],[1,0.5]];portConstraint=eastwest;rotatable=0;whiteSpace=wrap;html=1;" parent="ynLQrAodrRzqU9FkZrxc-114" vertex="1">
          <mxGeometry y="150" width="119" height="30" as="geometry" />
        </mxCell>
        <mxCell id="ynLQrAodrRzqU9FkZrxc-120" value="Fim" style="ellipse;whiteSpace=wrap;html=1;aspect=fixed;" parent="WIyWlLk6GJQsqaUBKTNV-1" vertex="1">
          <mxGeometry x="1331" y="383" width="40" height="40" as="geometry" />
        </mxCell>
        <mxCell id="ynLQrAodrRzqU9FkZrxc-143" value="Fontes Externas" style="swimlane;whiteSpace=wrap;html=1;dashed=1;" parent="WIyWlLk6GJQsqaUBKTNV-1" vertex="1">
          <mxGeometry x="1392" y="249" width="210" height="480" as="geometry" />
        </mxCell>
        <mxCell id="ynLQrAodrRzqU9FkZrxc-151" value="" style="endArrow=none;html=1;rounded=0;entryX=0.5;entryY=1;entryDx=0;entryDy=0;exitX=0.5;exitY=0;exitDx=0;exitDy=0;" parent="WIyWlLk6GJQsqaUBKTNV-1" source="ynLQrAodrRzqU9FkZrxc-114" target="ynLQrAodrRzqU9FkZrxc-3" edge="1">
          <mxGeometry width="50" height="50" relative="1" as="geometry">
            <mxPoint x="1382" y="640" as="sourcePoint" />
            <mxPoint x="1161" y="599" as="targetPoint" />
            <Array as="points">
              <mxPoint x="1498" y="499" />
              <mxPoint x="1371" y="499" />
              <mxPoint x="1191" y="499" />
            </Array>
          </mxGeometry>
        </mxCell>
        <mxCell id="ynLQrAodrRzqU9FkZrxc-152" value="" style="endArrow=none;html=1;rounded=0;entryX=0.5;entryY=0;entryDx=0;entryDy=0;exitX=0.5;exitY=0;exitDx=0;exitDy=0;" parent="WIyWlLk6GJQsqaUBKTNV-1" source="ynLQrAodrRzqU9FkZrxc-108" target="ynLQrAodrRzqU9FkZrxc-100" edge="1">
          <mxGeometry width="50" height="50" relative="1" as="geometry">
            <mxPoint x="1499" y="307" as="sourcePoint" />
            <mxPoint x="1191" y="246" as="targetPoint" />
            <Array as="points">
              <mxPoint x="1499" y="283" />
              <mxPoint x="1372" y="283" />
              <mxPoint x="1192" y="283" />
            </Array>
          </mxGeometry>
        </mxCell>
        <mxCell id="ynLQrAodrRzqU9FkZrxc-154" value="&lt;font style=&quot;font-size: 24px;&quot;&gt;IA&lt;/font&gt;" style="text;html=1;align=center;verticalAlign=middle;whiteSpace=wrap;rounded=0;" parent="WIyWlLk6GJQsqaUBKTNV-1" vertex="1">
          <mxGeometry x="923" y="269" width="60" height="30" as="geometry" />
        </mxCell>
        <mxCell id="ynLQrAodrRzqU9FkZrxc-156" value="" style="endArrow=none;html=1;rounded=0;entryX=0.5;entryY=0;entryDx=0;entryDy=0;exitX=1;exitY=0.5;exitDx=0;exitDy=0;" parent="WIyWlLk6GJQsqaUBKTNV-1" source="ynLQrAodrRzqU9FkZrxc-39" target="ynLQrAodrRzqU9FkZrxc-30" edge="1">
          <mxGeometry width="50" height="50" relative="1" as="geometry">
            <mxPoint x="683" y="811" as="sourcePoint" />
            <mxPoint x="882" y="769" as="targetPoint" />
            <Array as="points">
              <mxPoint x="623" y="309" />
              <mxPoint x="711" y="309" />
            </Array>
          </mxGeometry>
        </mxCell>
        <mxCell id="ynLQrAodrRzqU9FkZrxc-157" value="&lt;font style=&quot;font-size: 36px;&quot;&gt;&lt;u&gt;Elaborando Estimativas&lt;/u&gt;&lt;/font&gt;" style="text;html=1;align=center;verticalAlign=middle;whiteSpace=wrap;rounded=0;" parent="WIyWlLk6GJQsqaUBKTNV-1" vertex="1">
          <mxGeometry x="620" y="90" width="410" height="30" as="geometry" />
        </mxCell>
        <mxCell id="ynLQrAodrRzqU9FkZrxc-161" value="&lt;font style=&quot;font-size: 18px;&quot;&gt;Dados de Requisitos (RF)&lt;/font&gt;" style="rounded=1;whiteSpace=wrap;html=1;fontSize=12;glass=0;strokeWidth=1;shadow=0;" parent="WIyWlLk6GJQsqaUBKTNV-1" vertex="1">
          <mxGeometry x="571.75" y="955" width="120" height="70" as="geometry" />
        </mxCell>
        <mxCell id="ynLQrAodrRzqU9FkZrxc-162" value="&lt;font style=&quot;font-size: 18px;&quot;&gt;Dados de APF (IA)&lt;/font&gt;" style="rounded=1;whiteSpace=wrap;html=1;fontSize=12;glass=0;strokeWidth=1;shadow=0;" parent="WIyWlLk6GJQsqaUBKTNV-1" vertex="1">
          <mxGeometry x="773.25" y="955" width="120" height="70" as="geometry" />
        </mxCell>
        <mxCell id="ynLQrAodrRzqU9FkZrxc-163" value="&lt;font style=&quot;font-size: 18px;&quot;&gt;Dados de Prazo e Custo (Externos)&lt;/font&gt;" style="rounded=1;whiteSpace=wrap;html=1;fontSize=12;glass=0;strokeWidth=1;shadow=0;" parent="WIyWlLk6GJQsqaUBKTNV-1" vertex="1">
          <mxGeometry x="980.25" y="955" width="120" height="70" as="geometry" />
        </mxCell>
        <mxCell id="ynLQrAodrRzqU9FkZrxc-165" value="&lt;font style=&quot;font-size: 24px;&quot;&gt;Desenvolvimento de Modelos&lt;/font&gt;" style="text;html=1;align=center;verticalAlign=middle;whiteSpace=wrap;rounded=0;" parent="WIyWlLk6GJQsqaUBKTNV-1" vertex="1">
          <mxGeometry x="856.75" y="880" width="367" height="30" as="geometry" />
        </mxCell>
        <mxCell id="ynLQrAodrRzqU9FkZrxc-168" value="" style="shape=curlyBracket;whiteSpace=wrap;html=1;rounded=1;labelPosition=left;verticalLabelPosition=middle;align=right;verticalAlign=middle;dashed=1;rotation=-90;size=0.5;" parent="WIyWlLk6GJQsqaUBKTNV-1" vertex="1">
          <mxGeometry x="802.5" y="17.5" width="85" height="1550" as="geometry" />
        </mxCell>
        <mxCell id="ynLQrAodrRzqU9FkZrxc-169" value="&lt;font style=&quot;font-size: 14px;&quot;&gt;Supervisionado objetivando melhor estimativa&lt;/font&gt;&lt;div&gt;&lt;font style=&quot;font-size: 14px;&quot;&gt;Clusterização objetivando resultado por tipo de projeto&lt;/font&gt;&lt;/div&gt;" style="text;html=1;align=left;verticalAlign=middle;whiteSpace=wrap;rounded=0;" parent="WIyWlLk6GJQsqaUBKTNV-1" vertex="1">
          <mxGeometry x="450" y="1050" width="725" height="55" as="geometry" />
        </mxCell>
      </root>
    </mxGraphModel>
  </diagram>
</mxfile>
